<svg width="50" height="54" viewBox="0 0 50 54" fill="none" xmlns="http://www.w3.org/2000/svg">
<path d="M3.66664 48.3335V32.3335C3.66664 26.6755 5.91426 21.2493 9.91503 17.2485C13.9158 13.2478 19.342 11.0002 25 11.0002C30.6579 11.0002 36.0841 13.2478 40.0849 17.2485C44.0857 21.2493 46.3333 26.6755 46.3333 32.3335V48.3335H49V53.6668H0.999976V48.3335H3.66664ZM8.99998 32.3335H14.3333C14.3333 29.5045 15.4571 26.7914 17.4575 24.791C19.4579 22.7906 22.171 21.6668 25 21.6668V16.3335C20.7565 16.3335 16.6868 18.0192 13.6863 21.0198C10.6857 24.0204 8.99998 28.09 8.99998 32.3335ZM22.3333 0.333496H27.6666V8.3335H22.3333V0.333496ZM45.7413 7.8215L49.512 11.5922L43.8586 17.2482L40.0853 13.4775L45.7413 7.8215ZM0.487976 11.5922L4.25864 7.8215L9.91464 13.4748L6.14664 17.2508L0.487976 11.5922Z" fill="white"/>
</svg>
