<svg width="10" height="17" viewBox="0 0 10 17" fill="none" xmlns="http://www.w3.org/2000/svg">
<path d="M3.71003 8.00099L9.17203 2.05399C9.39579 1.82767 9.52128 1.52225 9.52128 1.20399C9.52128 0.885737 9.39579 0.580315 9.17203 0.353993C9.06197 0.242335 8.93081 0.15367 8.78617 0.0931501C8.64154 0.0326307 8.48632 0.00146484 8.32953 0.00146484C8.17275 0.00146484 8.01753 0.0326307 7.87289 0.0931501C7.72826 0.15367 7.5971 0.242335 7.48703 0.353993L0.827034 7.15399C0.604 7.38069 0.479004 7.68597 0.479004 8.00399C0.479004 8.32201 0.604 8.62729 0.827034 8.85399L7.48703 15.654C7.5971 15.7657 7.72826 15.8543 7.87289 15.9148C8.01753 15.9754 8.17275 16.0065 8.32953 16.0065C8.48632 16.0065 8.64154 15.9754 8.78617 15.9148C8.93081 15.8543 9.06197 15.7657 9.17203 15.654C9.39579 15.4277 9.52128 15.1222 9.52128 14.804C9.52128 14.4857 9.39579 14.1803 9.17203 13.954L3.71003 8.00099Z" fill="url(#paint0_linear_247_419)"/>
<defs>
<linearGradient id="paint0_linear_247_419" x1="5.00014" y1="0.00146484" x2="5.00014" y2="16.0065" gradientUnits="userSpaceOnUse">
<stop stop-color="#33C7F6"/>
<stop offset="1" stop-color="#0476D9"/>
</linearGradient>
</defs>
</svg>
