<svg width="14" height="18" viewBox="0 0 14 18" fill="none" xmlns="http://www.w3.org/2000/svg">
<path d="M10.5156 3.78125C10.5156 1.84273 8.93852 0.265625 7 0.265625C5.06148 0.265625 3.48438 1.84273 3.48438 3.78125C3.48438 5.71977 5.06148 7.29688 7 7.29688C8.93852 7.29688 10.5156 5.71977 10.5156 3.78125ZM7 7.29688C3.51067 7.29688 0.671875 10.1357 0.671875 13.625V14.284C0.671875 14.4838 0.756906 14.6743 0.905781 14.8076C2.6185 16.3423 4.78281 17.1875 7 17.1875C9.21723 17.1875 11.3815 16.3423 13.0942 14.8076C13.2431 14.6743 13.3281 14.4838 13.3281 14.284V13.625C13.3281 10.1357 10.4893 7.29688 7 7.29688Z" fill="#F9F9F9"/>
</svg>
