<svg width="18" height="18" viewBox="0 0 18 18" fill="none" xmlns="http://www.w3.org/2000/svg">
<path d="M8.99999 17.3332C4.39749 17.3332 0.666656 13.6023 0.666656 8.99984C0.666656 4.39734 4.39749 0.666504 8.99999 0.666504C13.6025 0.666504 17.3333 4.39734 17.3333 8.99984C17.3333 13.6023 13.6025 17.3332 8.99999 17.3332ZM14.2958 12.2932V12.2057C14.2958 11.4373 14.2958 11.0865 13.7525 10.7757C13.5779 10.6767 13.3985 10.5863 13.215 10.5048C12.9092 10.3657 12.7067 10.2748 12.4333 9.87484C12.4007 9.82734 12.3685 9.77956 12.3367 9.7315C12.0492 9.294 11.8417 8.979 11.0517 9.104C9.49749 9.35067 9.38249 9.624 9.31416 10.0857L9.30332 10.1615C9.20249 10.8365 9.18416 11.0632 9.46582 11.359C10.52 12.4648 11.1517 13.2623 11.3433 13.729C11.4367 13.9565 11.6767 14.6457 11.5117 15.3273C12.5232 14.9244 13.4235 14.2852 14.1375 13.4632C14.2292 13.1515 14.2958 12.7632 14.2958 12.2932ZM8.99999 2.194C7.06916 2.194 5.32499 2.999 4.08666 4.29067C4.23416 4.39317 4.36249 4.53734 4.45082 4.73567C4.62082 5.1165 4.62082 5.509 4.62082 5.8565C4.62082 6.12984 4.62082 6.38984 4.70832 6.57734C4.82832 6.834 5.34666 6.944 5.80416 7.039C5.96832 7.074 6.13666 7.109 6.28999 7.1515C6.71166 7.26817 7.03832 7.64734 7.29916 7.9515C7.40749 8.07734 7.56832 8.26317 7.64916 8.30984C7.69082 8.27984 7.82499 8.134 7.89082 7.89484C7.94249 7.7115 7.92749 7.54984 7.85332 7.4615C7.38666 6.9115 7.41249 5.85317 7.55666 5.46234C7.78332 4.8465 8.49166 4.89234 9.00999 4.92567C9.20332 4.93817 9.38499 4.95067 9.52166 4.93317C10.04 4.86817 10.2 4.079 10.3125 3.92484C10.5558 3.5915 11.3008 3.089 11.7625 2.779C10.8929 2.39233 9.95167 2.19301 8.99999 2.194Z" fill="white"/>
</svg>
