<svg width="14" height="12" viewBox="0 0 14 12" fill="none" xmlns="http://www.w3.org/2000/svg">
<path d="M13.7348 3.9625C13.8414 3.86563 14 3.95625 14 4.10938V10.5C14 11.3281 13.4121 12 12.6875 12H1.3125C0.587891 12 0 11.3281 0 10.5V4.1125C0 3.95625 0.155859 3.86875 0.265234 3.96562C0.877734 4.50937 1.68984 5.2 4.47891 7.51562C5.05586 7.99687 6.0293 9.00938 7 9.00313C7.97617 9.0125 8.96875 7.97813 9.52383 7.51562C12.3129 5.2 13.1223 4.50625 13.7348 3.9625ZM7 8C7.63438 8.0125 8.54766 7.0875 9.00703 6.70625C12.6355 3.69688 12.9117 3.43437 13.7484 2.68437C13.907 2.54375 14 2.325 14 2.09375V1.5C14 0.671875 13.4121 0 12.6875 0H1.3125C0.587891 0 0 0.671875 0 1.5V2.09375C0 2.325 0.0929687 2.54062 0.251562 2.68437C1.08828 3.43125 1.36445 3.69688 4.99297 6.70625C5.45234 7.0875 6.36562 8.0125 7 8Z" fill="white"/>
</svg>
