<svg width="24" height="24" viewBox="0 0 24 24" fill="none" xmlns="http://www.w3.org/2000/svg">
<path d="M19.7204 21.1267C17.6391 22.8845 14.9392 24.0001 12 24.0001C7.62661 24.0001 3.7875 21.5907 1.7063 18.0751L2.48545 14.4834L5.93911 13.8423C6.74067 16.4297 9.15938 18.3282 12 18.3282C13.3781 18.3282 14.6579 17.8923 15.7125 17.1188L19.0313 17.6251L19.7204 21.1267Z" fill="#59C36A"/>
<path d="M19.7203 21.1265L19.0313 17.6249L15.7125 17.1187C14.6578 17.8921 13.3781 18.328 12 18.328V23.9999C14.9391 23.9999 17.6391 22.8843 19.7203 21.1265Z" fill="#00A66C"/>
<path d="M5.67187 11.9998C5.67187 12.6466 5.77031 13.2654 5.93906 13.842L1.70625 18.0748C0.651563 16.3029 0 14.2216 0 11.9998C0 9.77788 0.651563 7.69668 1.70625 5.9248L5.10342 6.50948L5.93906 10.1576C5.77031 10.7341 5.67187 11.3529 5.67187 11.9998Z" fill="#FFDA2D"/>
<path d="M17.6672 14.8125C17.2172 15.7406 16.5281 16.5281 15.7125 17.1188L19.7203 21.1266C22.3079 18.9328 24 15.6563 24 12C24 11.2546 23.9297 10.4953 23.789 9.76402C23.7328 9.42652 23.4375 9.1875 23.1 9.1875H12V14.8125H17.6672Z" fill="#4175DF"/>
<path d="M19.9172 3.35152C19.9313 3.54839 19.8469 3.73125 19.7204 3.87183L16.711 6.86714C16.472 7.12027 16.0782 7.14839 15.797 6.93745C14.6859 6.10781 13.3781 5.67188 12 5.67188C9.15938 5.67188 6.74067 7.57027 5.93911 10.1578L1.7063 5.925C3.7875 2.40938 7.62661 0 12 0C14.7985 0 17.5266 1.03125 19.6641 2.8312C19.8188 2.95781 19.9032 3.15464 19.9172 3.35152Z" fill="#FF7F23"/>
<path d="M15.7969 6.93745C16.0781 7.14844 16.4718 7.12027 16.7109 6.86714L19.7203 3.87183C19.8469 3.73125 19.9313 3.54844 19.9172 3.35152C19.903 3.15459 19.8187 2.95781 19.664 2.8312C17.5266 1.03125 14.7984 0 12 0V5.67188C13.3781 5.67188 14.6859 6.10781 15.7969 6.93745Z" fill="#F03800"/>
</svg>
