<svg width="18" height="19" viewBox="0 0 18 19" fill="none" xmlns="http://www.w3.org/2000/svg">
<path d="M18 17.9998C18 18.265 17.8946 18.5194 17.7071 18.7069C17.5196 18.8944 17.2652 18.9998 17 18.9998H1C0.734784 18.9998 0.48043 18.8944 0.292893 18.7069C0.105357 18.5194 2.4071e-07 18.265 2.4071e-07 17.9998V7.48978C-0.000105484 7.3374 0.0346172 7.187 0.101516 7.05008C0.168415 6.91317 0.26572 6.79335 0.386 6.69978L8.386 0.477784C8.56154 0.341229 8.7776 0.26709 9 0.26709C9.2224 0.26709 9.43846 0.341229 9.614 0.477784L17.614 6.69978C17.7343 6.79335 17.8316 6.91317 17.8985 7.05008C17.9654 7.187 18.0001 7.3374 18 7.48978V17.9998Z" fill="url(#paint0_linear_249_51)"/>
<defs>
<linearGradient id="paint0_linear_249_51" x1="-1.49128e-07" y1="9.78211" x2="19.9054" y2="10.2368" gradientUnits="userSpaceOnUse">
<stop stop-color="#33C7F6"/>
<stop offset="1" stop-color="#125F9D"/>
</linearGradient>
</defs>
</svg>
