<svg width="375" height="707" viewBox="0 0 375 707" fill="none" xmlns="http://www.w3.org/2000/svg">
<path d="M-480.04 292.085C-592.725 339.29 -539.017 443.987 -498.077 490.435C-371.239 632.681 -329.289 501.752 -133.71 639.655C61.8693 777.558 31.7744 700.245 363.56 416.568C695.345 132.892 339.821 71.6712 284.374 129.033C228.927 186.394 156.115 141.495 77.1807 22.9964C-1.75402 -95.5023 -279.175 37.0155 -256.328 151.754C-233.482 266.492 -339.183 233.078 -480.04 292.085Z" stroke="#EEF4FF"/>
<path d="M-434.852 296.645C-536.396 339.243 -488.008 433.698 -451.121 475.601C-336.839 603.928 -299.027 485.798 -122.802 610.202C53.423 734.605 26.3105 664.854 325.302 408.892C624.294 152.93 303.937 97.7228 253.97 149.479C204.003 201.236 138.396 160.733 67.2769 53.8275C-3.84186 -53.0779 -253.835 66.5026 -233.256 170.019C-212.678 273.536 -307.922 243.398 -434.852 296.645Z" stroke="#EEF4FF"/>
<path d="M-399.836 300.371C-492.706 339.275 -448.442 425.561 -414.702 463.84C-310.169 581.071 -275.596 473.167 -114.411 586.818C46.7745 700.47 21.972 636.753 295.411 402.963C568.849 169.173 275.847 118.719 230.15 165.993C184.454 213.267 124.447 176.264 59.3933 78.6037C-5.66024 -19.0563 -234.295 90.1574 -215.466 184.718C-196.637 279.279 -283.75 251.741 -399.836 300.371Z" stroke="#EEF4FF"/>
<path d="M-366.592 302.824C-451.248 338.32 -410.904 417.033 -380.15 451.954C-284.869 558.895 -253.349 460.455 -106.426 564.129C40.4975 667.803 17.8919 609.677 267.157 396.382C516.421 183.087 249.337 137.073 207.68 180.202C166.023 223.332 111.325 189.578 52.0306 100.488C-7.26425 11.3979 -215.682 111.042 -198.523 197.307C-181.364 283.572 -260.77 258.454 -366.592 302.824Z" stroke="#EEF4FF"/>
<path d="M-330.652 306.612C-406.413 338.428 -370.316 408.964 -342.798 440.255C-257.541 536.083 -229.326 447.863 -97.8555 540.758C33.6149 633.653 13.3904 581.565 236.472 390.4C459.553 199.235 220.547 158.022 183.266 196.676C145.984 235.33 97.0384 205.086 43.9839 125.253C-9.07052 45.4205 -195.589 134.734 -180.241 212.039C-164.893 289.344 -235.95 266.841 -330.652 306.612Z" stroke="#EEF4FF"/>
<path d="M-292.871 310.625C-359.274 338.477 -327.63 400.237 -303.508 427.635C-228.775 511.542 -204.05 434.303 -88.8095 515.645C26.4305 596.987 8.70038 551.38 204.219 384.022C399.738 216.664 190.246 180.565 157.571 214.406C124.896 248.246 81.9936 221.763 35.4861 151.863C-11.0214 81.9627 -174.499 160.149 -161.042 227.833C-147.584 295.517 -209.868 275.811 -292.871 310.625Z" stroke="#EEF4FF"/>
</svg>
