<svg width="12" height="14" viewBox="0 0 12 14" fill="none" xmlns="http://www.w3.org/2000/svg">
<path d="M10.7143 6.125H10.0714V4.15625C10.0714 1.86484 8.24464 0 6 0C3.75536 0 1.92857 1.86484 1.92857 4.15625V6.125H1.28571C0.575893 6.125 0 6.71289 0 7.4375V12.6875C0 13.4121 0.575893 14 1.28571 14H10.7143C11.4241 14 12 13.4121 12 12.6875V7.4375C12 6.71289 11.4241 6.125 10.7143 6.125ZM7.92857 6.125H4.07143V4.15625C4.07143 3.0707 4.93661 2.1875 6 2.1875C7.06339 2.1875 7.92857 3.0707 7.92857 4.15625V6.125Z" fill="white"/>
</svg>
