<svg width="68" height="68" viewBox="0 0 68 68" fill="none" xmlns="http://www.w3.org/2000/svg">
<path d="M34.0001 67.3332C15.5901 67.3332 0.666748 52.4098 0.666748 33.9998C0.666748 15.5898 15.5901 0.666504 34.0001 0.666504C52.4101 0.666504 67.3334 15.5898 67.3334 33.9998C67.3334 52.4098 52.4101 67.3332 34.0001 67.3332ZM34.0001 60.6665C41.0725 60.6665 47.8553 57.857 52.8563 52.856C57.8572 47.855 60.6667 41.0723 60.6667 33.9998C60.6667 26.9274 57.8572 20.1446 52.8563 15.1437C47.8553 10.1427 41.0725 7.33317 34.0001 7.33317C26.9276 7.33317 20.1449 10.1427 15.1439 15.1437C10.1429 20.1446 7.33341 26.9274 7.33341 33.9998C7.33341 41.0723 10.1429 47.855 15.1439 52.856C20.1449 57.857 26.9276 60.6665 34.0001 60.6665ZM30.6667 43.9998H37.3334V50.6665H30.6667V43.9998ZM30.6667 17.3332H37.3334V37.3332H30.6667V17.3332Z" fill="white"/>
</svg>
